<svg width="35" height="35" xmlns="http://www.w3.org/2000/svg" viewBox="0 0 512 512"><path d="M256 0C114.853 0 0 114.833 0 256c0 89.987 46.778 169.127 117.173 214.774 2.082 2.122 4.7 3.589 7.555 4.601C163.178 498.456 207.973 512 256 512c141.167 0 256-114.833 256-256S397.167 0 256 0zm0 472.361c-37.577-.02-72.953-9.677-103.788-26.611 5.532-49.792 47.036-85.029 103.391-85.029 56.534 0 98.097 35.455 103.431 85.485-30.656 16.676-65.754 26.155-103.034 26.155zm-60.877-223.698c0-33.572 27.305-60.877 60.877-60.877s60.877 27.305 60.877 60.877c0 33.571-27.305 60.877-60.877 60.877s-60.877-27.305-60.877-60.877zm199.922 172.835c-11.045-41.523-41.186-74.282-82.154-90.086 26.314-18.144 43.645-48.444 43.645-82.749 0-55.444-45.093-100.536-100.536-100.536-55.444 0-100.536 45.092-100.536 100.536 0 34.206 17.232 64.387 43.407 82.57-41.067 15.646-71.347 48.265-82.551 89.709C69.503 381.204 39.659 322.052 39.659 256c0-119.275 97.046-216.341 216.341-216.341S472.341 136.725 472.341 256c0 66.37-30.101 125.779-77.296 165.498z" fill="#f53838"/></svg>