<?xml version="1.0" encoding="utf-8"?><svg viewBox="0 0 21 21" xmlns="http://www.w3.org/2000/svg" xmlns:xlink="http://www.w3.org/1999/xlink"><style>:root>svg{display:none}:root>svg:target{display:block}</style><svg fill="none" viewBox="0 0 14 21" id="about--location" xmlns="http://www.w3.org/2000/svg"><path d="M14 7.55A7.002 7.002 0 002.05 2.6 7 7 0 000 7.55c0 1.386.41 2.676 1.105 3.764h-.008C3.457 15.01 7 20.55 7 20.55l5.903-9.235h-.007A6.98 6.98 0 0014 7.55zm-7 3a3 3 0 110-6.001 3 3 0 010 6z" fill="#F53838"/></svg><svg fill="none" viewBox="0 0 21 19" id="about--servers" xmlns="http://www.w3.org/2000/svg"><path d="M18.5.55h-16a2 2 0 00-2 2v4a2 2 0 002 2h16a2 2 0 002-2v-4a2 2 0 00-2-2zm-5 4a1 1 0 11-2 0 1 1 0 012 0zm4 0a1 1 0 11-2 0 1 1 0 012 0zm1 6h-16a2 2 0 00-2 2v4a2 2 0 002 2h16a2 2 0 002-2v-4a2 2 0 00-2-2zm-5 4a1 1 0 11-2 0 1 1 0 012 0zm4 0a1 1 0 11-2 0 1 1 0 012 0z" fill="#F53838"/></svg><svg fill="none" viewBox="0 0 17 19" id="about--user" xmlns="http://www.w3.org/2000/svg"><path fill-rule="evenodd" clip-rule="evenodd" d="M8.5 7.35a3.6 3.6 0 100-7.2 3.6 3.6 0 000 7.2zm-5.101 10.8c-1.822 0-3.357-1.532-2.66-3.215a8.4 8.4 0 0115.522 0c.697 1.683-.838 3.214-2.66 3.214H3.4z" fill="#F53838"/></svg></svg>