<?xml version="1.0" encoding="utf-8"?><svg viewBox="0 0 512 512" xmlns="http://www.w3.org/2000/svg" xmlns:xlink="http://www.w3.org/1999/xlink"><style>:root>svg{display:none}:root>svg:target{display:block}</style><svg fill="none" viewBox="0 0 14 21" id="about--location" xmlns="http://www.w3.org/2000/svg"><path d="M14 7.55A7.002 7.002 0 002.05 2.6 7 7 0 000 7.55c0 1.386.41 2.676 1.105 3.764h-.008C3.457 15.01 7 20.55 7 20.55l5.903-9.235h-.007A6.98 6.98 0 0014 7.55zm-7 3a3 3 0 110-6.001 3 3 0 010 6z" fill="#F53838"/></svg><svg fill="none" viewBox="0 0 21 19" id="about--servers" xmlns="http://www.w3.org/2000/svg"><path d="M18.5.55h-16a2 2 0 00-2 2v4a2 2 0 002 2h16a2 2 0 002-2v-4a2 2 0 00-2-2zm-5 4a1 1 0 11-2 0 1 1 0 012 0zm4 0a1 1 0 11-2 0 1 1 0 012 0zm1 6h-16a2 2 0 00-2 2v4a2 2 0 002 2h16a2 2 0 002-2v-4a2 2 0 00-2-2zm-5 4a1 1 0 11-2 0 1 1 0 012 0zm4 0a1 1 0 11-2 0 1 1 0 012 0z" fill="#F53838"/></svg><svg fill="none" viewBox="0 0 17 19" id="about--user" xmlns="http://www.w3.org/2000/svg"><path fill-rule="evenodd" clip-rule="evenodd" d="M8.5 7.35a3.6 3.6 0 100-7.2 3.6 3.6 0 000 7.2zm-5.101 10.8c-1.822 0-3.357-1.532-2.66-3.215a8.4 8.4 0 0115.522 0c.697 1.683-.838 3.214-2.66 3.214H3.4z" fill="#F53838"/></svg><svg fill="none" viewBox="0 0 21 21" id="features--check" xmlns="http://www.w3.org/2000/svg"><path d="M10.121.55c-5.514 0-10 4.485-10 10 0 5.513 4.486 10 10 10s10-4.487 10-10c0-5.515-4.485-10-10-10zM8.122 14.961l-3.005-2.999a1 1 0 111.412-1.415l1.591 1.588 4.588-4.587a1 1 0 111.413 1.414l-5.999 6z" fill="#2FAB73"/></svg><svg viewBox="0 0 512 512" id="footer--facebook" xmlns="http://www.w3.org/2000/svg"><path d="M384 176h-96v-64c0-17.664 14.336-32 32-32h32V0h-64c-53.024 0-96 42.976-96 96v80h-64v80h64v256h96V256h64l32-80z" fill="#f53838"/></svg><svg viewBox="0 0 300 300" id="footer--instagram" xmlns="http://www.w3.org/2000/svg"><path d="M38.52.012h222.978C282.682.012 300 17.336 300 38.52v222.978c0 21.178-17.318 38.49-38.502 38.49H38.52c-21.184 0-38.52-17.313-38.52-38.49V38.52C0 17.336 17.336.012 38.52.012zm180.026 33.317c-7.438 0-13.505 6.091-13.505 13.525v32.314c0 7.437 6.067 13.514 13.505 13.514h33.903c7.426 0 13.506-6.077 13.506-13.514V46.854c0-7.434-6.08-13.525-13.506-13.525h-33.903zm47.538 93.539h-26.396a87.715 87.715 0 013.86 25.759c0 49.882-41.766 90.34-93.266 90.34-51.487 0-93.254-40.458-93.254-90.34 0-8.963 1.37-17.584 3.861-25.759H33.35V253.6c0 6.563 5.359 11.902 11.916 11.902h208.907c6.563 0 11.911-5.339 11.911-11.902V126.868zm-115.801-35.89c-33.26 0-60.24 26.128-60.24 58.388 0 32.227 26.98 58.375 60.24 58.375 33.278 0 60.259-26.148 60.259-58.375 0-32.261-26.981-58.388-60.259-58.388z" fill="#f53838"/></svg><svg viewBox="0 0 512 512" id="footer--twitter" xmlns="http://www.w3.org/2000/svg"><path d="M512 97.248c-19.04 8.352-39.328 13.888-60.48 16.576 21.76-12.992 38.368-33.408 46.176-58.016-20.288 12.096-42.688 20.64-66.56 25.408C411.872 60.704 384.416 48 354.464 48c-58.112 0-104.896 47.168-104.896 104.992 0 8.32.704 16.32 2.432 23.936-87.264-4.256-164.48-46.08-216.352-109.792-9.056 15.712-14.368 33.696-14.368 53.056 0 36.352 18.72 68.576 46.624 87.232-16.864-.32-33.408-5.216-47.424-12.928v1.152c0 51.008 36.384 93.376 84.096 103.136-8.544 2.336-17.856 3.456-27.52 3.456-6.72 0-13.504-.384-19.872-1.792 13.6 41.568 52.192 72.128 98.08 73.12-35.712 27.936-81.056 44.768-130.144 44.768-8.608 0-16.864-.384-25.12-1.44C46.496 446.88 101.6 464 161.024 464c193.152 0 298.752-160 298.752-298.688 0-4.64-.16-9.12-.384-13.568 20.832-14.784 38.336-33.248 52.608-54.496z" fill="#f53838"/></svg><svg fill="none" viewBox="0 0 14 10" id="pricing--check" xmlns="http://www.w3.org/2000/svg"><path d="M5.396 9.28a.997.997 0 01-.707-.292L.447 4.745A1 1 0 111.86 3.33l3.535 3.535L11.76.502a1 1 0 011.415 1.414L6.103 8.988a.997.997 0 01-.707.292z" fill="#2FAB73"/></svg></svg>