<?xml version="1.0" encoding="utf-8"?><svg viewBox="0 0 21 21" xmlns="http://www.w3.org/2000/svg" xmlns:xlink="http://www.w3.org/1999/xlink"><style>:root>svg{display:none}:root>svg:target{display:block}</style><svg fill="none" viewBox="0 0 14 21" id="about--location" xmlns="http://www.w3.org/2000/svg"><path d="M14 7.55A7.002 7.002 0 002.05 2.6 7 7 0 000 7.55c0 1.386.41 2.676 1.105 3.764h-.008C3.457 15.01 7 20.55 7 20.55l5.903-9.235h-.007A6.98 6.98 0 0014 7.55zm-7 3a3 3 0 110-6.001 3 3 0 010 6z" fill="#F53838"/></svg><svg fill="none" viewBox="0 0 21 19" id="about--servers" xmlns="http://www.w3.org/2000/svg"><path d="M18.5.55h-16a2 2 0 00-2 2v4a2 2 0 002 2h16a2 2 0 002-2v-4a2 2 0 00-2-2zm-5 4a1 1 0 11-2 0 1 1 0 012 0zm4 0a1 1 0 11-2 0 1 1 0 012 0zm1 6h-16a2 2 0 00-2 2v4a2 2 0 002 2h16a2 2 0 002-2v-4a2 2 0 00-2-2zm-5 4a1 1 0 11-2 0 1 1 0 012 0zm4 0a1 1 0 11-2 0 1 1 0 012 0z" fill="#F53838"/></svg><svg fill="none" viewBox="0 0 17 19" id="about--user" xmlns="http://www.w3.org/2000/svg"><path fill-rule="evenodd" clip-rule="evenodd" d="M8.5 7.35a3.6 3.6 0 100-7.2 3.6 3.6 0 000 7.2zm-5.101 10.8c-1.822 0-3.357-1.532-2.66-3.215a8.4 8.4 0 0115.522 0c.697 1.683-.838 3.214-2.66 3.214H3.4z" fill="#F53838"/></svg><svg fill="none" viewBox="0 0 21 21" id="features--check" xmlns="http://www.w3.org/2000/svg"><path d="M10.121.55c-5.514 0-10 4.485-10 10 0 5.513 4.486 10 10 10s10-4.487 10-10c0-5.515-4.485-10-10-10zM8.122 14.961l-3.005-2.999a1 1 0 111.412-1.415l1.591 1.588 4.588-4.587a1 1 0 111.413 1.414l-5.999 6z" fill="#2FAB73"/></svg><svg fill="none" viewBox="0 0 14 10" id="pricing--check" xmlns="http://www.w3.org/2000/svg"><path d="M5.396 9.28a.997.997 0 01-.707-.292L.447 4.745A1 1 0 111.86 3.33l3.535 3.535L11.76.502a1 1 0 011.415 1.414L6.103 8.988a.997.997 0 01-.707.292z" fill="#2FAB73"/></svg></svg>